# xmcd
#
# Track frame offsets:
#	150
#	20220
#	33980
#	45182
#	59522
#	72757
#	85967
#	96737
#	106535
#	118767
#
# Disc length: 1757 seconds
#
# Revision: 0
# Processed by: cddbd v1.4PL0 Copyright (c) Steve Scherf et al.
# Submitted via: dBpowerAMP V4.0
#
DISCID=8206db0a
DTITLE=Carrol Baker - Her Greatest Hits
DYEAR=1900
DGENRE=
TTITLE0=I've Never Been This Far Before
TTITLE1=Ten Little Fingers
TTITLE2=Why I Had To Pass This Way
TTITLE3=The Hungry Fire Of Love
TTITLE4=All Them Irons In The Fire
TTITLE5=Picture In My Mind
TTITLE6=Little Boy Blue
TTITLE7=Gone, Gone, Gone (Travlin' Man)
TTITLE8=Why Me Lord
TTITLE9=One Night Of Cheatin' Ain't Worth The Repeatin'
EXTD=\n\n                                                                                        Les
EXTT0=
EXTT1=
EXTT2=
EXTT3=
EXTT4=
EXTT5=
EXTT6=
EXTT7=
EXTT8=
EXTT9=
PLAYORDER=
